<svg version="1.1" id="Layer_1" xmlns="http://www.w3.org/2000/svg" xmlns:xlink="http://www.w3.org/1999/xlink" x="0px" y="0px"
	 width="100%" viewBox="0 0 566 566" enable-background="new 0 0 566 566" xml:space="preserve">
<path fill="#01965F" opacity="1.000000" stroke="none" 
	d="
M258.000000,1.000001 
	C274.354218,1.000000 290.708466,1.000000 307.774048,1.341762 
	C319.515747,3.265617 330.671570,4.248783 341.555328,6.530025 
	C398.872620,18.543764 447.973328,45.656006 488.512421,87.956367 
	C528.292175,129.464401 553.178101,178.615204 563.176453,235.264603 
	C564.455078,242.509018 565.725708,249.754837 567.000000,257.000000 
	C567.000000,274.687561 567.000000,292.375122 566.637268,310.726746 
	C561.457336,357.318756 547.242981,400.071564 521.600708,438.555481 
	C476.584625,506.115631 414.128723,547.844666 334.210205,563.072327 
	C326.825439,564.479431 319.404266,565.695312 312.000000,567.000000 
	C293.312439,567.000000 274.624878,567.000000 255.306183,566.623291 
	C244.350250,564.534790 233.944397,563.207764 223.713104,561.052124 
	C112.225571,537.563904 24.031727,445.706543 4.851392,333.283600 
	C3.583667,325.852997 2.284528,318.427734 1.000001,311.000000 
	C1.000000,292.979095 1.000000,274.958221 1.377224,256.305847 
	C2.494947,250.407913 3.140535,245.126099 3.990423,239.877350 
	C14.018217,177.947815 41.377686,124.825272 86.229088,81.087090 
	C129.897568,38.502453 182.183868,12.688107 242.625839,3.646975 
	C247.767487,2.877868 252.876068,1.887553 258.000000,1.000001 
M455.031250,246.419693 
	C454.964233,245.924469 454.938843,245.419388 454.824310,244.935410 
	C434.868256,160.601181 359.330719,104.000816 272.730896,109.285080 
	C227.287399,112.058022 188.432922,130.338531 157.122421,163.430740 
	C121.709854,200.858444 105.797905,245.854874 109.392288,297.113739 
	C112.615845,343.084473 131.694672,382.129761 165.768555,413.202209 
	C203.538498,447.645203 248.447586,462.745514 299.329376,458.499725 
	C344.169159,454.758087 382.406067,436.104004 412.599030,402.768921 
	C452.849915,358.329224 466.662933,306.121399 455.031250,246.419693 
M445.182953,139.312851 
	C449.055450,143.772766 452.927917,148.232697 456.894318,152.800797 
	C453.969513,155.519348 451.466675,157.845703 448.892334,160.238510 
	C450.809052,162.397034 452.439819,164.233505 454.128784,166.135544 
	C464.154297,157.451889 473.804535,149.027756 483.539337,140.702408 
	C486.364990,138.285812 486.846771,135.915482 484.292206,133.066360 
	C479.849091,128.110901 475.680298,122.882156 470.959442,118.209526 
	C463.817596,111.140701 452.992676,109.981560 444.875641,115.830307 
	C437.925354,120.838326 431.650452,126.783592 424.930573,132.437424 
	C426.863770,134.728195 428.438141,136.593811 430.120056,138.586807 
	C433.163635,136.093430 435.801208,133.932678 438.528046,131.698792 
	C440.800476,134.268967 442.778778,136.506500 445.182953,139.312851 
M189.753342,86.212891 
	C187.635483,82.087006 185.803131,77.781395 183.341904,73.871681 
	C177.770370,65.021194 168.276108,62.444237 159.071426,67.354279 
	C152.766769,70.717369 146.766708,74.648666 140.598618,78.271736 
	C137.377289,80.163918 136.754669,82.536552 138.716034,85.759621 
	C144.598984,95.426964 150.435837,105.122643 156.236053,114.839874 
	C158.214417,118.154282 160.560730,118.398926 163.712723,116.403671 
	C169.194794,112.933441 174.814346,109.680916 180.360992,106.311989 
	C187.607010,101.910896 191.084549,95.621826 189.753342,86.212891 
M109.031639,110.641891 
	C99.538734,112.368172 86.196045,126.103516 85.326553,135.694244 
	C85.041237,138.841263 85.595963,142.571762 87.115639,145.277756 
	C91.278717,152.690643 97.475777,158.538544 105.689865,160.855362 
	C109.609726,161.960968 115.027969,161.596130 118.505394,159.646347 
	C126.272453,155.291367 131.724503,148.212952 135.437637,140.022064 
	C136.029739,138.715942 136.101410,137.108414 136.149719,135.631592 
	C136.533920,123.888664 123.032158,111.040413 109.031639,110.641891 
M383.136993,90.680138 
	C384.360443,88.763405 385.583893,86.846672 386.948669,84.708557 
	C395.182953,89.661736 403.090515,94.418404 411.043427,99.202339 
	C407.834412,104.613762 404.893463,109.573097 401.779938,114.823463 
	C404.208038,116.207581 406.313751,117.407921 408.753876,118.798897 
	C416.408722,105.998428 423.886047,93.494858 431.517273,80.733940 
	C429.011414,79.241852 426.922424,77.997978 424.682220,76.664062 
	C421.375153,82.022095 418.284027,87.030289 415.158752,92.093758 
	C406.819855,87.098343 398.987976,82.406662 391.050354,77.651642 
	C394.140564,72.442863 397.094055,67.464531 400.288116,62.080738 
	C397.895721,60.644173 395.719757,59.337551 393.373322,57.928555 
	C385.661346,70.828522 378.191040,83.324318 370.564606,96.081230 
	C373.114014,97.587479 375.203278,98.821846 377.438751,100.142601 
	C379.363647,96.996758 381.094238,94.168442 383.136993,90.680138 
M206.832275,47.127670 
	C209.316925,58.105892 211.524597,69.158302 214.434708,80.022568 
	C215.469376,83.885292 219.121750,86.094688 223.363480,86.071930 
	C225.819595,86.058746 228.311996,85.584175 230.719345,85.022629 
	C238.886078,83.117661 247.022171,81.081413 255.384918,79.042923 
	C254.624451,76.122818 254.051270,73.921860 253.372330,71.314827 
	C244.350037,73.487228 235.683167,75.727852 226.928513,77.545654 
	C225.278152,77.888336 221.946869,76.936134 221.650284,75.921257 
	C219.298996,67.875328 217.494370,59.669636 215.477493,51.329769 
	C226.283875,48.687740 236.410019,46.212021 246.793320,43.673428 
	C246.079651,40.831093 245.462326,38.372486 244.828552,35.848373 
	C233.324829,38.648449 222.499725,41.225567 211.716965,43.969074 
	C210.064545,44.389507 208.607452,45.577557 206.832275,47.127670 
M316.278046,77.081497 
	C317.661011,78.253288 318.868988,80.052399 320.455383,80.494873 
	C330.618195,83.329475 340.864105,85.866234 351.440308,88.593124 
	C352.117218,85.414986 352.614319,83.081131 353.154236,80.546150 
	C343.917877,78.318611 335.242737,76.115051 326.508820,74.176224 
	C323.131561,73.426506 322.114594,71.805840 322.932617,68.524292 
	C324.459259,62.399971 325.830994,56.236744 327.239044,50.083260 
	C328.038422,46.589596 329.862366,45.726730 333.438538,46.677280 
	C342.063721,48.969891 350.805450,50.824142 359.822357,52.930424 
	C360.463593,50.175140 361.035004,47.719906 361.640198,45.119461 
	C351.609436,42.720665 342.308380,40.057224 332.826630,38.480129 
	C329.736664,37.966167 324.351410,39.281158 323.139984,41.480473 
	C317.371582,51.952751 314.039764,63.313942 315.416046,75.561195 
	C315.450256,75.865540 315.727600,76.142578 316.278046,77.081497 
M64.143265,181.728577 
	C65.676819,178.082779 67.210373,174.436996 68.853249,170.531311 
	C66.284325,169.421524 64.062004,168.461487 61.459232,167.337097 
	C57.416939,176.985016 53.392548,186.080368 49.806011,195.345215 
	C47.717918,200.739227 50.006886,205.971664 55.540115,208.591782 
	C62.587612,211.928955 69.781174,214.998352 77.064964,217.782364 
	C82.481010,219.852493 87.774529,217.990265 90.239098,212.827866 
	C94.578804,203.737747 98.339691,194.371292 102.488800,184.783478 
	C99.751740,183.637299 97.539047,182.710693 95.041321,181.664734 
	C91.311295,190.323212 87.631371,198.473785 84.307419,206.767044 
	C82.906685,210.261902 81.018166,210.915573 77.779617,209.474899 
	C72.162933,206.976288 66.528297,204.507629 60.820988,202.227142 
	C57.482704,200.893265 56.533497,199.058975 58.151363,195.693832 
	C60.235413,191.359055 62.016369,186.878571 64.143265,181.728577 
M498.571960,167.155075 
	C498.788910,168.667572 498.733307,170.286469 499.274445,171.672394 
	C500.832458,175.662857 502.631470,179.559235 504.522247,183.922928 
	C493.317352,188.830215 482.428345,193.599136 471.270477,198.485825 
	C472.389923,201.062012 473.363190,203.301712 474.452454,205.808380 
	C485.652740,200.987061 496.565186,196.289642 507.690338,191.500671 
	C510.244263,197.103409 512.610168,202.293594 515.048096,207.641937 
	C517.777222,206.424561 519.870972,205.490631 522.273560,204.418915 
	C516.425659,190.980103 510.695953,177.812775 504.896393,164.484985 
	C502.642639,165.446548 500.971924,166.159348 498.571960,167.155075 
M104.647537,411.096771 
	C106.183228,409.929138 107.718918,408.761505 109.511871,407.398285 
	C108.248283,405.974487 107.331947,404.941986 106.676910,404.203888 
	C99.295670,407.012451 96.049210,415.723846 86.977768,415.043091 
	C92.573334,410.157104 98.168892,405.271149 104.019768,400.162231 
	C103.286560,399.150513 102.457764,398.006897 100.955505,395.933990 
	C94.112686,402.595551 87.563202,408.892548 81.149261,415.324738 
	C80.422562,416.053528 79.867477,417.883942 80.280060,418.600708 
	C80.902054,419.681213 82.370224,420.414856 83.627411,420.939911 
	C84.455109,421.285583 85.544250,421.005249 85.688606,421.005249 
	C85.688606,422.938538 85.244873,424.861053 85.854683,426.352936 
	C86.221657,427.250702 88.360413,428.129242 89.479248,427.904205 
	C99.196983,425.949646 108.864006,423.742981 118.846825,421.545105 
	C116.187981,416.796021 116.225281,416.924255 112.496498,418.008911 
	C105.972893,419.906525 99.398422,421.629242 92.845268,423.425232 
	C92.647751,422.980927 92.450241,422.536621 92.252731,422.092316 
	C96.199577,418.576263 100.146423,415.060211 104.647537,411.096771 
M149.343018,487.216705 
	C150.406799,485.761322 151.470581,484.305969 152.532318,482.853394 
	C155.773865,484.926758 158.053070,486.384583 160.468063,487.929260 
	C159.065048,489.771362 158.064758,491.084717 156.893478,492.622559 
	C158.178497,493.465973 159.370377,494.248260 160.792694,495.181793 
	C165.541290,489.530792 170.258072,484.168854 174.679321,478.573425 
	C177.981644,474.394135 176.822800,469.316528 172.326050,466.634583 
	C168.197922,464.172485 162.947556,464.511444 159.498062,468.219116 
	C154.540573,473.547546 150.021469,479.283844 145.034332,485.178070 
	C146.534714,486.079346 147.619492,486.730957 149.343018,487.216705 
M433.912170,464.547699 
	C431.909607,461.108002 430.087982,457.545868 427.862366,454.257111 
	C424.462585,449.233154 418.063812,449.172058 414.471619,454.040802 
	C411.660614,457.850769 411.240417,461.984741 413.592712,466.194946 
	C416.827789,471.985077 420.137970,477.733337 423.443970,483.483459 
	C423.578918,483.718170 423.999481,483.788666 424.623016,484.107483 
	C425.550201,483.285553 426.570282,482.381287 427.514709,481.544067 
	C426.542542,479.559204 425.763885,477.969421 424.895966,476.197327 
	C427.311890,474.409027 429.490906,472.796082 431.743805,471.128418 
	C433.050964,472.925262 434.089233,474.352509 435.072021,475.703461 
	C438.448639,474.461273 438.957153,472.637085 436.979279,469.933228 
	C435.908020,468.468689 435.129028,466.790344 433.912170,464.547699 
M274.121826,500.500244 
	C272.812958,502.753876 270.850830,504.864838 270.321381,507.288666 
	C268.904877,513.773499 268.096863,520.391663 267.080841,526.962036 
	C267.043427,527.203979 267.360291,527.500732 267.663055,528.041809 
	C268.947021,527.952454 270.340271,527.855469 271.640930,527.764954 
	C272.028198,525.616516 272.340332,523.884705 272.603912,522.422485 
	C275.802856,522.422485 278.404053,522.422485 281.145386,522.422485 
	C281.145386,524.544556 281.145386,526.312561 281.145386,528.062439 
	C285.405609,528.407227 285.448425,528.414673 285.995239,525.263550 
	C286.876678,520.184143 287.605530,515.076599 288.569122,510.013367 
	C289.320892,506.063354 289.615021,502.220581 285.903748,499.602631 
	C282.189087,496.982300 278.362549,497.628845 274.121826,500.500244 
M109.978966,455.571045 
	C111.649467,458.262939 113.430122,458.724243 115.883911,456.287811 
	C117.869987,454.315857 120.222198,452.712646 122.609138,450.786865 
	C124.870239,452.871155 127.027321,454.859589 129.452072,457.094757 
	C126.161507,459.926117 123.202026,462.472595 120.005226,465.223297 
	C121.443642,466.369904 122.540558,467.244263 123.713074,468.178894 
	C131.587524,461.728516 139.245468,455.455505 147.247360,448.900726 
	C145.664215,447.653320 144.569061,446.790405 143.462814,445.918793 
	C139.869064,448.802307 136.536240,451.476440 133.702911,453.749817 
	C131.009491,451.660919 128.691879,449.863464 126.133446,447.879242 
	C129.872299,444.787201 133.040497,442.167084 136.512451,439.295746 
	C135.270416,438.129333 134.254669,437.175446 133.001358,435.998444 
	C125.259445,442.414276 117.735893,448.649170 109.978966,455.571045 
M319.379639,517.944214 
	C319.848083,517.778137 320.335052,517.651306 320.782104,517.440002 
	C327.645569,514.195862 330.986145,507.827545 329.008636,501.780548 
	C327.262146,496.439972 322.622345,494.582642 314.475067,495.977448 
	C313.841461,496.085907 313.222473,496.279724 312.762451,496.393036 
	C312.762451,506.628235 312.762451,516.670410 312.762451,526.645081 
	C316.631226,527.018372 317.952393,525.752686 317.532410,522.364746 
	C317.364746,521.012146 318.234131,519.530884 319.379639,517.944214 
M353.946289,509.602875 
	C354.482208,512.170288 355.018158,514.737671 355.634277,517.689209 
	C357.257385,517.205750 358.569672,516.814819 360.494720,516.241394 
	C357.634338,511.119934 359.564758,508.269806 363.912567,505.277466 
	C368.936340,501.819824 369.758514,494.182800 366.784485,489.621979 
	C363.963165,485.295288 358.808167,484.180878 352.597595,487.051392 
	C351.378510,487.614868 350.071930,489.973724 350.271484,491.280731 
	C351.168365,497.155548 352.593842,502.949646 353.946289,509.602875 
M441.391174,433.939392 
	C447.152527,440.762451 452.913849,447.585541 458.944092,454.727081 
	C460.196777,453.371155 461.131897,452.358978 462.132019,451.276428 
	C460.441833,449.142670 458.936340,447.242096 457.552246,445.494781 
	C458.539398,443.630341 459.434570,442.221558 460.063171,440.702484 
	C462.541565,434.713135 460.514832,427.800659 455.510162,424.895538 
	C450.658417,422.079193 445.194611,423.778748 441.053253,429.668335 
	C440.463074,430.507660 440.951569,432.105499 441.391174,433.939392 
M247.338257,497.524292 
	C243.839035,493.407806 239.558487,492.834229 235.728134,495.968567 
	C232.051285,498.977295 231.834976,503.960510 235.209793,507.859192 
	C236.184753,508.985474 237.751099,510.005981 237.985703,511.271576 
	C238.334564,513.153687 238.372086,515.690613 237.346466,517.040527 
	C236.532593,518.111816 233.935974,517.940247 232.111572,518.100464 
	C230.329407,518.256897 228.522736,518.134460 226.726837,518.134460 
	C230.987991,523.931152 236.155594,524.338074 240.446136,520.707520 
	C244.755005,517.061462 245.080261,511.789612 241.266083,507.029846 
	C240.435562,505.993439 239.207550,505.143738 238.748154,503.977417 
	C238.252747,502.719543 237.890320,500.820648 238.508453,499.895020 
	C239.023682,499.123444 241.043640,499.370911 242.392105,499.137848 
	C243.945618,498.869293 245.493561,498.568726 247.338257,497.524292 
M229.347046,66.753593 
	C235.257507,65.285973 241.167984,63.818356 247.432465,62.262829 
	C246.802399,59.461590 246.273941,57.112064 245.662674,54.394444 
	C237.131607,56.454533 229.115479,58.390274 220.900497,60.374035 
	C221.617203,63.173332 222.218567,65.522148 222.882431,68.115044 
	C225.024307,67.667770 226.782791,67.300560 229.347046,66.753593 
M191.909714,510.601685 
	C194.757294,512.206787 195.680252,510.081482 196.749557,508.141846 
	C200.266235,501.762695 203.809006,495.397949 207.307114,489.090179 
	C213.289093,491.113495 213.289093,491.113495 214.764709,486.877899 
	C209.701584,484.926208 204.630066,482.971252 199.425934,480.965179 
	C198.691147,482.293304 198.069473,483.416931 197.358841,484.701385 
	C199.144943,485.620270 200.749222,486.445618 202.689713,487.443939 
	C199.824234,492.596436 196.917160,497.606689 194.239075,502.736481 
	C193.012787,505.085419 192.236984,507.669556 191.909714,510.601685 
M476.971069,406.540955 
	C473.479523,403.535248 469.987976,400.529572 466.185730,397.256378 
	C465.217743,398.662262 464.426605,399.811310 463.477997,401.189026 
	C471.271362,407.954071 478.803131,414.492035 486.557098,421.222839 
	C487.550049,419.514496 488.250488,418.309387 488.979492,417.055206 
	C484.951965,413.544189 481.217560,410.288666 476.971069,406.540955 
z"/>
<path fill="#FEFFFE" opacity="1.000000" stroke="none" 
	d="
M567.000000,256.531342 
	C565.725708,249.754837 564.455078,242.509018 563.176453,235.264603 
	C553.178101,178.615204 528.292175,129.464401 488.512421,87.956367 
	C447.973328,45.656006 398.872620,18.543764 341.555328,6.530025 
	C330.671570,4.248783 319.515747,3.265617 308.242737,1.341762 
	C394.259949,1.000000 480.519897,1.000000 567.000000,1.000000 
	C567.000000,86.020767 567.000000,171.041733 567.000000,256.531342 
z"/>
<path fill="#FEFFFE" opacity="1.000000" stroke="none" 
	d="
M257.531342,1.000001 
	C252.876068,1.887553 247.767487,2.877868 242.625839,3.646975 
	C182.183868,12.688107 129.897568,38.502453 86.229088,81.087090 
	C41.377686,124.825272 14.018217,177.947815 3.990423,239.877350 
	C3.140535,245.126099 2.494947,250.407913 1.377224,255.837189 
	C1.000000,171.072678 1.000000,86.145355 1.000000,1.000000 
	C86.354103,1.000000 171.708389,1.000000 257.531342,1.000001 
z"/>
<path fill="#FEFFFE" opacity="1.000000" stroke="none" 
	d="
M312.468658,567.000000 
	C319.404266,565.695312 326.825439,564.479431 334.210205,563.072327 
	C414.128723,547.844666 476.584625,506.115631 521.600708,438.555481 
	C547.242981,400.071564 561.457336,357.318756 566.637268,311.195435 
	C567.000000,396.260223 567.000000,481.520477 567.000000,567.000000 
	C482.312561,567.000000 397.624939,567.000000 312.468658,567.000000 
z"/>
<path fill="#FEFFFE" opacity="1.000000" stroke="none" 
	d="
M1.000001,311.468658 
	C2.284528,318.427734 3.583667,325.852997 4.851392,333.283600 
	C24.031727,445.706543 112.225571,537.563904 223.713104,561.052124 
	C233.944397,563.207764 244.350250,564.534790 254.837524,566.623291 
	C170.406006,567.000000 85.812004,567.000000 1.000000,567.000000 
	C1.000000,481.979218 1.000000,396.958282 1.000001,311.468658 
z"/>
<path fill="#FEFEFE" opacity="1.000000" stroke="none" 
	d="
M455.103943,246.835449 
	C466.662933,306.121399 452.849915,358.329224 412.599030,402.768921 
	C382.406067,436.104004 344.169159,454.758087 299.329376,458.499725 
	C248.447586,462.745514 203.538498,447.645203 165.768555,413.202209 
	C131.694672,382.129761 112.615845,343.084473 109.392288,297.113739 
	C105.797905,245.854874 121.709854,200.858444 157.122421,163.430740 
	C188.432922,130.338531 227.287399,112.058022 272.730896,109.285080 
	C359.330719,104.000816 434.868256,160.601181 454.824310,244.935410 
	C454.938843,245.419388 454.964233,245.924469 455.103943,246.835449 
M257.258087,119.786537 
	C225.920502,124.513901 198.416946,137.431717 175.407547,156.876831 
	C190.151886,171.840363 204.474350,186.375732 218.671768,200.784210 
	C261.499298,171.409744 304.524078,171.982773 346.714935,200.852905 
	C361.283478,186.286972 375.612152,171.960861 390.324890,157.250732 
	C351.854828,125.838539 307.871490,112.794388 257.258087,119.786537 
M116.806694,269.418671 
	C113.122383,315.778900 126.564110,356.576141 156.175476,392.335205 
	C170.806961,377.302002 185.043793,362.674316 199.430191,347.892914 
	C185.394119,329.410828 177.653519,307.920776 177.667908,284.018585 
	C177.682358,260.012115 185.509720,238.441864 199.834854,219.897858 
	C185.059616,205.126831 170.601852,190.673187 156.044952,176.120438 
	C133.553391,202.717575 120.285980,233.507370 116.806694,269.418671 
M277.520416,450.175964 
	C320.255157,451.335632 357.808044,437.814697 390.518311,410.686646 
	C375.742676,396.117737 361.193390,381.772003 346.515411,367.299377 
	C304.023224,396.478943 260.736053,396.409424 218.543274,367.423126 
	C203.799103,381.750153 189.138168,395.996246 174.231796,410.480865 
	C204.096909,435.017578 237.835968,448.921082 277.520416,450.175964 
z"/>
<path fill="#F8FCFB" opacity="1.000000" stroke="none" 
	d="
M444.970032,139.028442 
	C442.778778,136.506500 440.800476,134.268967 438.528046,131.698792 
	C435.801208,133.932678 433.163635,136.093430 430.120056,138.586807 
	C428.438141,136.593811 426.863770,134.728195 424.930573,132.437424 
	C431.650452,126.783592 437.925354,120.838326 444.875641,115.830307 
	C452.992676,109.981560 463.817596,111.140701 470.959442,118.209526 
	C475.680298,122.882156 479.849091,128.110901 484.292206,133.066360 
	C486.846771,135.915482 486.364990,138.285812 483.539337,140.702408 
	C473.804535,149.027756 464.154297,157.451889 454.128784,166.135544 
	C452.439819,164.233505 450.809052,162.397034 448.892334,160.238510 
	C451.466675,157.845703 453.969513,155.519348 456.894318,152.800797 
	C452.927917,148.232697 449.055450,143.772766 444.970032,139.028442 
M451.200684,121.375946 
	C449.066772,122.871460 446.932892,124.366966 444.467468,126.094818 
	C450.877869,133.479111 456.925079,140.445068 463.164856,147.632812 
	C467.706573,143.659195 471.883362,140.004898 476.239716,136.193497 
	C472.764465,132.177765 469.815826,128.353439 466.429840,124.966347 
	C462.444031,120.979317 457.635071,119.060371 451.200684,121.375946 
z"/>
<path fill="#F8FCFB" opacity="1.000000" stroke="none" 
	d="
M189.842621,86.627136 
	C191.084549,95.621826 187.607010,101.910896 180.360992,106.311989 
	C174.814346,109.680916 169.194794,112.933441 163.712723,116.403671 
	C160.560730,118.398926 158.214417,118.154282 156.236053,114.839874 
	C150.435837,105.122643 144.598984,95.426964 138.716034,85.759621 
	C136.754669,82.536552 137.377289,80.163918 140.598618,78.271736 
	C146.766708,74.648666 152.766769,70.717369 159.071426,67.354279 
	C168.276108,62.444237 177.770370,65.021194 183.341904,73.871681 
	C185.803131,77.781395 187.635483,82.087006 189.842621,86.627136 
M163.600403,106.957115 
	C168.282013,104.099731 173.076691,101.409386 177.613571,98.338196 
	C182.193756,95.237663 183.256409,90.647942 181.027420,85.646034 
	C176.838470,76.245903 171.871979,72.040581 166.230774,73.148270 
	C165.584579,73.275146 164.915222,73.467712 164.349396,73.791817 
	C158.630280,77.067719 152.930527,80.377380 147.018875,83.796997 
	C151.687134,91.580505 155.995667,98.847351 160.436264,106.032578 
	C160.855255,106.710533 162.104507,106.875366 163.600403,106.957115 
z"/>
<path fill="#F8FCFB" opacity="1.000000" stroke="none" 
	d="
M109.424095,110.578537 
	C123.032158,111.040413 136.533920,123.888664 136.149719,135.631592 
	C136.101410,137.108414 136.029739,138.715942 135.437637,140.022064 
	C131.724503,148.212952 126.272453,155.291367 118.505394,159.646347 
	C115.027969,161.596130 109.609726,161.960968 105.689865,160.855362 
	C97.475777,158.538544 91.278717,152.690643 87.115639,145.277756 
	C85.595963,142.571762 85.041237,138.841263 85.326553,135.694244 
	C86.196045,126.103516 99.538734,112.368172 109.424095,110.578537 
M94.042358,133.804840 
	C91.789192,141.893433 103.408501,155.016205 111.754883,153.735657 
	C113.035019,153.539246 114.341072,153.029297 115.465538,152.373520 
	C130.796082,143.433319 131.553299,131.202820 117.445465,121.007202 
	C117.310562,120.909714 117.182693,120.802193 117.045334,120.708450 
	C112.314667,117.480103 107.463303,117.771080 103.552071,121.972549 
	C100.273483,125.494423 97.384186,129.378693 94.042358,133.804840 
z"/>
<path fill="#F9FDFB" opacity="1.000000" stroke="none" 
	d="
M382.980896,91.010132 
	C381.094238,94.168442 379.363647,96.996758 377.438751,100.142601 
	C375.203278,98.821846 373.114014,97.587479 370.564606,96.081230 
	C378.191040,83.324318 385.661346,70.828522 393.373322,57.928555 
	C395.719757,59.337551 397.895721,60.644173 400.288116,62.080738 
	C397.094055,67.464531 394.140564,72.442863 391.050354,77.651642 
	C398.987976,82.406662 406.819855,87.098343 415.158752,92.093758 
	C418.284027,87.030289 421.375153,82.022095 424.682220,76.664062 
	C426.922424,77.997978 429.011414,79.241852 431.517273,80.733940 
	C423.886047,93.494858 416.408722,105.998428 408.753876,118.798897 
	C406.313751,117.407921 404.208038,116.207581 401.779938,114.823463 
	C404.893463,109.573097 407.834412,104.613762 411.043427,99.202339 
	C403.090515,94.418404 395.182953,89.661736 386.948669,84.708557 
	C385.583893,86.846672 384.360443,88.763405 382.980896,91.010132 
z"/>
<path fill="#F7FCFA" opacity="1.000000" stroke="none" 
	d="
M206.946136,46.769127 
	C208.607452,45.577557 210.064545,44.389507 211.716965,43.969074 
	C222.499725,41.225567 233.324829,38.648449 244.828552,35.848373 
	C245.462326,38.372486 246.079651,40.831093 246.793320,43.673428 
	C236.410019,46.212021 226.283875,48.687740 215.477493,51.329769 
	C217.494370,59.669636 219.298996,67.875328 221.650284,75.921257 
	C221.946869,76.936134 225.278152,77.888336 226.928513,77.545654 
	C235.683167,75.727852 244.350037,73.487228 253.372330,71.314827 
	C254.051270,73.921860 254.624451,76.122818 255.384918,79.042923 
	C247.022171,81.081413 238.886078,83.117661 230.719345,85.022629 
	C228.311996,85.584175 225.819595,86.058746 223.363480,86.071930 
	C219.121750,86.094688 215.469376,83.885292 214.434708,80.022568 
	C211.524597,69.158302 209.316925,58.105892 206.946136,46.769127 
z"/>
<path fill="#F7FCFA" opacity="1.000000" stroke="none" 
	d="
M316.084808,76.756927 
	C315.727600,76.142578 315.450256,75.865540 315.416046,75.561195 
	C314.039764,63.313942 317.371582,51.952751 323.139984,41.480473 
	C324.351410,39.281158 329.736664,37.966167 332.826630,38.480129 
	C342.308380,40.057224 351.609436,42.720665 361.640198,45.119461 
	C361.035004,47.719906 360.463593,50.175140 359.822357,52.930424 
	C350.805450,50.824142 342.063721,48.969891 333.438538,46.677280 
	C329.862366,45.726730 328.038422,46.589596 327.239044,50.083260 
	C325.830994,56.236744 324.459259,62.399971 322.932617,68.524292 
	C322.114594,71.805840 323.131561,73.426506 326.508820,74.176224 
	C335.242737,76.115051 343.917877,78.318611 353.154236,80.546150 
	C352.614319,83.081131 352.117218,85.414986 351.440308,88.593124 
	C340.864105,85.866234 330.618195,83.329475 320.455383,80.494873 
	C318.868988,80.052399 317.661011,78.253288 316.084808,76.756927 
z"/>
<path fill="#F7FCFA" opacity="1.000000" stroke="none" 
	d="
M64.035568,182.094711 
	C62.016369,186.878571 60.235413,191.359055 58.151363,195.693832 
	C56.533497,199.058975 57.482704,200.893265 60.820988,202.227142 
	C66.528297,204.507629 72.162933,206.976288 77.779617,209.474899 
	C81.018166,210.915573 82.906685,210.261902 84.307419,206.767044 
	C87.631371,198.473785 91.311295,190.323212 95.041321,181.664734 
	C97.539047,182.710693 99.751740,183.637299 102.488800,184.783478 
	C98.339691,194.371292 94.578804,203.737747 90.239098,212.827866 
	C87.774529,217.990265 82.481010,219.852493 77.064964,217.782364 
	C69.781174,214.998352 62.587612,211.928955 55.540115,208.591782 
	C50.006886,205.971664 47.717918,200.739227 49.806011,195.345215 
	C53.392548,186.080368 57.416939,176.985016 61.459232,167.337097 
	C64.062004,168.461487 66.284325,169.421524 68.853249,170.531311 
	C67.210373,174.436996 65.676819,178.082779 64.035568,182.094711 
z"/>
<path fill="#F7FCFA" opacity="1.000000" stroke="none" 
	d="
M498.936584,167.013611 
	C500.971924,166.159348 502.642639,165.446548 504.896393,164.484985 
	C510.695953,177.812775 516.425659,190.980103 522.273560,204.418915 
	C519.870972,205.490631 517.777222,206.424561 515.048096,207.641937 
	C512.610168,202.293594 510.244263,197.103409 507.690338,191.500671 
	C496.565186,196.289642 485.652740,200.987061 474.452454,205.808380 
	C473.363190,203.301712 472.389923,201.062012 471.270477,198.485825 
	C482.428345,193.599136 493.317352,188.830215 504.522247,183.922928 
	C502.631470,179.559235 500.832458,175.662857 499.274445,171.672394 
	C498.733307,170.286469 498.788910,168.667572 498.936584,167.013611 
z"/>
<path fill="#F1F9F6" opacity="1.000000" stroke="none" 
	d="
M104.370407,411.320496 
	C100.146423,415.060211 96.199577,418.576263 92.252731,422.092316 
	C92.450241,422.536621 92.647751,422.980927 92.845268,423.425232 
	C99.398422,421.629242 105.972893,419.906525 112.496498,418.008911 
	C116.225281,416.924255 116.187981,416.796021 118.846825,421.545105 
	C108.864006,423.742981 99.196983,425.949646 89.479248,427.904205 
	C88.360413,428.129242 86.221657,427.250702 85.854683,426.352936 
	C85.244873,424.861053 85.688606,422.938538 85.688606,421.005249 
	C85.544250,421.005249 84.455109,421.285583 83.627411,420.939911 
	C82.370224,420.414856 80.902054,419.681213 80.280060,418.600708 
	C79.867477,417.883942 80.422562,416.053528 81.149261,415.324738 
	C87.563202,408.892548 94.112686,402.595551 100.955505,395.933990 
	C102.457764,398.006897 103.286560,399.150513 104.019768,400.162231 
	C98.168892,405.271149 92.573334,410.157104 86.977768,415.043091 
	C96.049210,415.723846 99.295670,407.012451 106.676910,404.203888 
	C107.331947,404.941986 108.248283,405.974487 109.511871,407.398285 
	C107.718918,408.761505 106.183228,409.929138 104.370407,411.320496 
z"/>
<path fill="#EFF8F5" opacity="1.000000" stroke="none" 
	d="
M149.023651,487.299622 
	C147.619492,486.730957 146.534714,486.079346 145.034332,485.178070 
	C150.021469,479.283844 154.540573,473.547546 159.498062,468.219116 
	C162.947556,464.511444 168.197922,464.172485 172.326050,466.634583 
	C176.822800,469.316528 177.981644,474.394135 174.679321,478.573425 
	C170.258072,484.168854 165.541290,489.530792 160.792694,495.181793 
	C159.370377,494.248260 158.178497,493.465973 156.893478,492.622559 
	C158.064758,491.084717 159.065048,489.771362 160.468063,487.929260 
	C158.053070,486.384583 155.773865,484.926758 152.532318,482.853394 
	C151.470581,484.305969 150.406799,485.761322 149.023651,487.299622 
M162.620956,471.781433 
	C160.474823,474.309326 158.328705,476.837250 155.978882,479.605072 
	C158.598724,481.248474 161.040848,482.780365 163.583313,484.375244 
	C165.629822,481.963806 167.329285,479.930939 169.062561,477.927307 
	C170.873978,475.833313 172.929764,473.185181 170.195908,471.129517 
	C168.704590,470.008148 165.546127,471.103882 162.620956,471.781433 
z"/>
<path fill="#F1F9F6" opacity="1.000000" stroke="none" 
	d="
M434.065186,464.878052 
	C435.129028,466.790344 435.908020,468.468689 436.979279,469.933228 
	C438.957153,472.637085 438.448639,474.461273 435.072021,475.703461 
	C434.089233,474.352509 433.050964,472.925262 431.743805,471.128418 
	C429.490906,472.796082 427.311890,474.409027 424.895966,476.197327 
	C425.763885,477.969421 426.542542,479.559204 427.514709,481.544067 
	C426.570282,482.381287 425.550201,483.285553 424.623016,484.107483 
	C423.999481,483.788666 423.578918,483.718170 423.443970,483.483459 
	C420.137970,477.733337 416.827789,471.985077 413.592712,466.194946 
	C411.240417,461.984741 411.660614,457.850769 414.471619,454.040802 
	C418.063812,449.172058 424.462585,449.233154 427.862366,454.257111 
	C430.087982,457.545868 431.909607,461.108002 434.065186,464.878052 
M421.224945,470.184875 
	C425.925659,473.332245 426.575378,467.720367 429.630829,466.814117 
	C427.941711,463.791901 426.460785,461.205750 425.042175,458.585846 
	C423.700684,456.108490 421.573212,454.156433 419.155640,456.160309 
	C417.696106,457.370117 416.914368,460.496918 417.265656,462.511627 
	C417.696808,464.984283 419.628510,467.195282 421.224945,470.184875 
z"/>
<path fill="#F1F9F6" opacity="1.000000" stroke="none" 
	d="
M274.420959,500.267914 
	C278.362549,497.628845 282.189087,496.982300 285.903748,499.602631 
	C289.615021,502.220581 289.320892,506.063354 288.569122,510.013367 
	C287.605530,515.076599 286.876678,520.184143 285.995239,525.263550 
	C285.448425,528.414673 285.405609,528.407227 281.145386,528.062439 
	C281.145386,526.312561 281.145386,524.544556 281.145386,522.422485 
	C278.404053,522.422485 275.802856,522.422485 272.603912,522.422485 
	C272.340332,523.884705 272.028198,525.616516 271.640930,527.764954 
	C270.340271,527.855469 268.947021,527.952454 267.663055,528.041809 
	C267.360291,527.500732 267.043427,527.203979 267.080841,526.962036 
	C268.096863,520.391663 268.904877,513.773499 270.321381,507.288666 
	C270.850830,504.864838 272.812958,502.753876 274.420959,500.267914 
M274.076141,512.814758 
	C273.964722,514.269348 273.853271,515.723938 273.716248,517.512756 
	C276.758179,517.512756 279.461456,517.512756 282.395752,517.512756 
	C282.971405,514.161621 283.901276,511.076202 283.873657,507.999329 
	C283.858093,506.269592 282.261169,504.554108 281.376678,502.832153 
	C279.376160,503.924713 276.900024,504.613739 275.523743,506.235901 
	C274.396698,507.564362 274.579834,510.004364 274.076141,512.814758 
z"/>
<path fill="#F1F9F6" opacity="1.000000" stroke="none" 
	d="
M110.095650,455.227539 
	C117.735893,448.649170 125.259445,442.414276 133.001358,435.998444 
	C134.254669,437.175446 135.270416,438.129333 136.512451,439.295746 
	C133.040497,442.167084 129.872299,444.787201 126.133446,447.879242 
	C128.691879,449.863464 131.009491,451.660919 133.702911,453.749817 
	C136.536240,451.476440 139.869064,448.802307 143.462814,445.918793 
	C144.569061,446.790405 145.664215,447.653320 147.247360,448.900726 
	C139.245468,455.455505 131.587524,461.728516 123.713074,468.178894 
	C122.540558,467.244263 121.443642,466.369904 120.005226,465.223297 
	C123.202026,462.472595 126.161507,459.926117 129.452072,457.094757 
	C127.027321,454.859589 124.870239,452.871155 122.609138,450.786865 
	C120.222198,452.712646 117.869987,454.315857 115.883911,456.287811 
	C113.430122,458.724243 111.649467,458.262939 110.095650,455.227539 
z"/>
<path fill="#EDF7F3" opacity="1.000000" stroke="none" 
	d="
M319.005554,518.026245 
	C318.234131,519.530884 317.364746,521.012146 317.532410,522.364746 
	C317.952393,525.752686 316.631226,527.018372 312.762451,526.645081 
	C312.762451,516.670410 312.762451,506.628235 312.762451,496.393036 
	C313.222473,496.279724 313.841461,496.085907 314.475067,495.977448 
	C322.622345,494.582642 327.262146,496.439972 329.008636,501.780548 
	C330.986145,507.827545 327.645569,514.195862 320.782104,517.440002 
	C320.335052,517.651306 319.848083,517.778137 319.005554,518.026245 
M319.836121,512.993652 
	C323.600952,510.972229 325.761444,508.015808 324.288910,503.673798 
	C323.168182,500.369141 320.506256,499.552460 317.170013,500.304138 
	C317.170013,504.125275 317.064880,507.603271 317.253723,511.065216 
	C317.294220,511.807068 318.399414,512.490784 319.836121,512.993652 
z"/>
<path fill="#F1F9F6" opacity="1.000000" stroke="none" 
	d="
M353.887482,509.187866 
	C352.593842,502.949646 351.168365,497.155548 350.271484,491.280731 
	C350.071930,489.973724 351.378510,487.614868 352.597595,487.051392 
	C358.808167,484.180878 363.963165,485.295288 366.784485,489.621979 
	C369.758514,494.182800 368.936340,501.819824 363.912567,505.277466 
	C359.564758,508.269806 357.634338,511.119934 360.494720,516.241394 
	C358.569672,516.814819 357.257385,517.205750 355.634277,517.689209 
	C355.018158,514.737671 354.482208,512.170288 353.887482,509.187866 
M357.268494,502.723633 
	C359.016235,501.999390 361.965302,501.602478 362.269745,500.485016 
	C362.973083,497.903320 363.169708,494.594177 362.059174,492.318085 
	C361.338013,490.840027 357.952850,490.661682 354.773041,489.558014 
	C355.765686,494.851685 356.433228,498.411621 357.268494,502.723633 
z"/>
<path fill="#F1F9F6" opacity="1.000000" stroke="none" 
	d="
M441.165985,433.645813 
	C440.951569,432.105499 440.463074,430.507660 441.053253,429.668335 
	C445.194611,423.778748 450.658417,422.079193 455.510162,424.895538 
	C460.514832,427.800659 462.541565,434.713135 460.063171,440.702484 
	C459.434570,442.221558 458.539398,443.630341 457.552246,445.494781 
	C458.936340,447.242096 460.441833,449.142670 462.132019,451.276428 
	C461.131897,452.358978 460.196777,453.371155 458.944092,454.727081 
	C452.913849,447.585541 447.152527,440.762451 441.165985,433.645813 
M455.108551,440.566315 
	C457.840454,436.729034 457.471405,432.924194 454.055389,429.982422 
	C451.318787,427.625793 448.274506,428.126801 445.492065,431.813019 
	C448.493256,434.881073 451.523987,437.979340 455.108551,440.566315 
z"/>
<path fill="#EFF8F5" opacity="1.000000" stroke="none" 
	d="
M247.191101,497.903168 
	C245.493561,498.568726 243.945618,498.869293 242.392105,499.137848 
	C241.043640,499.370911 239.023682,499.123444 238.508453,499.895020 
	C237.890320,500.820648 238.252747,502.719543 238.748154,503.977417 
	C239.207550,505.143738 240.435562,505.993439 241.266083,507.029846 
	C245.080261,511.789612 244.755005,517.061462 240.446136,520.707520 
	C236.155594,524.338074 230.987991,523.931152 226.726837,518.134460 
	C228.522736,518.134460 230.329407,518.256897 232.111572,518.100464 
	C233.935974,517.940247 236.532593,518.111816 237.346466,517.040527 
	C238.372086,515.690613 238.334564,513.153687 237.985703,511.271576 
	C237.751099,510.005981 236.184753,508.985474 235.209793,507.859192 
	C231.834976,503.960510 232.051285,498.977295 235.728134,495.968567 
	C239.558487,492.834229 243.839035,493.407806 247.191101,497.903168 
z"/>
<path fill="#F5FBF8" opacity="1.000000" stroke="none" 
	d="
M228.944153,66.843475 
	C226.782791,67.300560 225.024307,67.667770 222.882431,68.115044 
	C222.218567,65.522148 221.617203,63.173332 220.900497,60.374035 
	C229.115479,58.390274 237.131607,56.454533 245.662674,54.394444 
	C246.273941,57.112064 246.802399,59.461590 247.432465,62.262829 
	C241.167984,63.818356 235.257507,65.285973 228.944153,66.843475 
z"/>
<path fill="#EFF8F5" opacity="1.000000" stroke="none" 
	d="
M191.583298,510.374359 
	C192.236984,507.669556 193.012787,505.085419 194.239075,502.736481 
	C196.917160,497.606689 199.824234,492.596436 202.689713,487.443939 
	C200.749222,486.445618 199.144943,485.620270 197.358841,484.701385 
	C198.069473,483.416931 198.691147,482.293304 199.425934,480.965179 
	C204.630066,482.971252 209.701584,484.926208 214.764709,486.877899 
	C213.289093,491.113495 213.289093,491.113495 207.307114,489.090179 
	C203.809006,495.397949 200.266235,501.762695 196.749557,508.141846 
	C195.680252,510.081482 194.757294,512.206787 191.583298,510.374359 
z"/>
<path fill="#EFF8F5" opacity="1.000000" stroke="none" 
	d="
M477.227112,406.787048 
	C481.217560,410.288666 484.951965,413.544189 488.979492,417.055206 
	C488.250488,418.309387 487.550049,419.514496 486.557098,421.222839 
	C478.803131,414.492035 471.271362,407.954071 463.477997,401.189026 
	C464.426605,399.811310 465.217743,398.662262 466.185730,397.256378 
	C469.987976,400.529572 473.479523,403.535248 477.227112,406.787048 
z"/>
<path fill="#02975F" opacity="1.000000" stroke="none" 
	d="
M257.688354,119.707947 
	C307.871490,112.794388 351.854828,125.838539 390.324890,157.250732 
	C375.612152,171.960861 361.283478,186.286972 346.714935,200.852905 
	C304.524078,171.982773 261.499298,171.409744 218.671768,200.784210 
	C204.474350,186.375732 190.151886,171.840363 175.407547,156.876831 
	C198.416946,137.431717 225.920502,124.513901 257.688354,119.707947 
z"/>
<path fill="#01975F" opacity="1.000000" stroke="none" 
	d="
M116.836349,268.960327 
	C120.285980,233.507370 133.553391,202.717575 156.044952,176.120438 
	C170.601852,190.673187 185.059616,205.126831 199.834854,219.897858 
	C185.509720,238.441864 177.682358,260.012115 177.667908,284.018585 
	C177.653519,307.920776 185.394119,329.410828 199.430191,347.892914 
	C185.043793,362.674316 170.806961,377.302002 156.175476,392.335205 
	C126.564110,356.576141 113.122383,315.778900 116.836349,268.960327 
z"/>
<path fill="#01965F" opacity="1.000000" stroke="none" 
	d="
M277.025146,450.154419 
	C237.835968,448.921082 204.096909,435.017578 174.231796,410.480865 
	C189.138168,395.996246 203.799103,381.750153 218.543274,367.423126 
	C260.736053,396.409424 304.023224,396.478943 346.515411,367.299377 
	C361.193390,381.772003 375.742676,396.117737 390.518311,410.686646 
	C357.808044,437.814697 320.255157,451.335632 277.025146,450.154419 
z"/>
<path fill="#069862" opacity="1.000000" stroke="none" 
	d="
M451.555542,121.230957 
	C457.635071,119.060371 462.444031,120.979317 466.429840,124.966347 
	C469.815826,128.353439 472.764465,132.177765 476.239716,136.193497 
	C471.883362,140.004898 467.706573,143.659195 463.164856,147.632812 
	C456.925079,140.445068 450.877869,133.479111 444.467468,126.094818 
	C446.932892,124.366966 449.066772,122.871460 451.555542,121.230957 
z"/>
<path fill="#049861" opacity="1.000000" stroke="none" 
	d="
M163.284348,107.117775 
	C162.104507,106.875366 160.855255,106.710533 160.436264,106.032578 
	C155.995667,98.847351 151.687134,91.580505 147.018875,83.796997 
	C152.930527,80.377380 158.630280,77.067719 164.349396,73.791817 
	C164.915222,73.467712 165.584579,73.275146 166.230774,73.148270 
	C171.871979,72.040581 176.838470,76.245903 181.027420,85.646034 
	C183.256409,90.647942 182.193756,95.237663 177.613571,98.338196 
	C173.076691,101.409386 168.282013,104.099731 163.284348,107.117775 
z"/>
<path fill="#049861" opacity="1.000000" stroke="none" 
	d="
M94.182442,133.453674 
	C97.384186,129.378693 100.273483,125.494423 103.552071,121.972549 
	C107.463303,117.771080 112.314667,117.480103 117.045334,120.708450 
	C117.182693,120.802193 117.310562,120.909714 117.445465,121.007202 
	C131.553299,131.202820 130.796082,143.433319 115.465538,152.373520 
	C114.341072,153.029297 113.035019,153.539246 111.754883,153.735657 
	C103.408501,155.016205 91.789192,141.893433 94.182442,133.453674 
z"/>
<path fill="#069862" opacity="1.000000" stroke="none" 
	d="
M162.880249,471.490601 
	C165.546127,471.103882 168.704590,470.008148 170.195908,471.129517 
	C172.929764,473.185181 170.873978,475.833313 169.062561,477.927307 
	C167.329285,479.930939 165.629822,481.963806 163.583313,484.375244 
	C161.040848,482.780365 158.598724,481.248474 155.978882,479.605072 
	C158.328705,476.837250 160.474823,474.309326 162.880249,471.490601 
z"/>
<path fill="#0E9C67" opacity="1.000000" stroke="none" 
	d="
M421.068207,469.852112 
	C419.628510,467.195282 417.696808,464.984283 417.265656,462.511627 
	C416.914368,460.496918 417.696106,457.370117 419.155640,456.160309 
	C421.573212,454.156433 423.700684,456.108490 425.042175,458.585846 
	C426.460785,461.205750 427.941711,463.791901 429.630829,466.814117 
	C426.575378,467.720367 425.925659,473.332245 421.068207,469.852112 
z"/>
<path fill="#0E9C67" opacity="1.000000" stroke="none" 
	d="
M274.129150,512.383179 
	C274.579834,510.004364 274.396698,507.564362 275.523743,506.235901 
	C276.900024,504.613739 279.376160,503.924713 281.376678,502.832153 
	C282.261169,504.554108 283.858093,506.269592 283.873657,507.999329 
	C283.901276,511.076202 282.971405,514.161621 282.395752,517.512756 
	C279.461456,517.512756 276.758179,517.512756 273.716248,517.512756 
	C273.853271,515.723938 273.964722,514.269348 274.129150,512.383179 
z"/>
<path fill="#0E9C67" opacity="1.000000" stroke="none" 
	d="
M319.425110,513.097473 
	C318.399414,512.490784 317.294220,511.807068 317.253723,511.065216 
	C317.064880,507.603271 317.170013,504.125275 317.170013,500.304138 
	C320.506256,499.552460 323.168182,500.369141 324.288910,503.673798 
	C325.761444,508.015808 323.600952,510.972229 319.425110,513.097473 
z"/>
<path fill="#0E9C67" opacity="1.000000" stroke="none" 
	d="
M357.184631,502.347595 
	C356.433228,498.411621 355.765686,494.851685 354.773041,489.558014 
	C357.952850,490.661682 361.338013,490.840027 362.059174,492.318085 
	C363.169708,494.594177 362.973083,497.903320 362.269745,500.485016 
	C361.965302,501.602478 359.016235,501.999390 357.184631,502.347595 
z"/>
<path fill="#0E9C67" opacity="1.000000" stroke="none" 
	d="
M454.831635,440.821960 
	C451.523987,437.979340 448.493256,434.881073 445.492065,431.813019 
	C448.274506,428.126801 451.318787,427.625793 454.055389,429.982422 
	C457.471405,432.924194 457.840454,436.729034 454.831635,440.821960 
z"/>
</svg>